<?xml version="1.0" standalone="no"?>
<svg xmlns:xlink="http://www.w3.org/1999/xlink" id="wave" style="transform:rotate(0deg); transition: 0.3s" viewBox="0 0 1440 490" version="1.1" xmlns="http://www.w3.org/2000/svg"><defs><linearGradient id="sw-gradient-0" x1="0" x2="0" y1="1" y2="0"><stop stop-color="rgba(255, 255, 255, 1)" offset="0%"/><stop stop-color="rgba(255, 255, 255, 1)" offset="100%"/></linearGradient></defs><path style="transform:translate(0, 0px); opacity:1" fill="url(#sw-gradient-0)" d="M0,98L15,81.7C30,65,60,33,90,49C120,65,150,131,180,138.8C210,147,240,98,270,106.2C300,114,330,180,360,236.8C390,294,420,343,450,310.3C480,278,510,163,540,147C570,131,600,212,630,220.5C660,229,690,163,720,147C750,131,780,163,810,155.2C840,147,870,98,900,114.3C930,131,960,212,990,236.8C1020,261,1050,229,1080,253.2C1110,278,1140,359,1170,343C1200,327,1230,212,1260,138.8C1290,65,1320,33,1350,73.5C1380,114,1410,229,1440,236.8C1470,245,1500,147,1530,138.8C1560,131,1590,212,1620,212.3C1650,212,1680,131,1710,138.8C1740,147,1770,245,1800,302.2C1830,359,1860,376,1890,326.7C1920,278,1950,163,1980,114.3C2010,65,2040,82,2070,89.8C2100,98,2130,98,2145,98L2160,98L2160,490L2145,490C2130,490,2100,490,2070,490C2040,490,2010,490,1980,490C1950,490,1920,490,1890,490C1860,490,1830,490,1800,490C1770,490,1740,490,1710,490C1680,490,1650,490,1620,490C1590,490,1560,490,1530,490C1500,490,1470,490,1440,490C1410,490,1380,490,1350,490C1320,490,1290,490,1260,490C1230,490,1200,490,1170,490C1140,490,1110,490,1080,490C1050,490,1020,490,990,490C960,490,930,490,900,490C870,490,840,490,810,490C780,490,750,490,720,490C690,490,660,490,630,490C600,490,570,490,540,490C510,490,480,490,450,490C420,490,390,490,360,490C330,490,300,490,270,490C240,490,210,490,180,490C150,490,120,490,90,490C60,490,30,490,15,490L0,490Z"/></svg>